<svg xmlns="http://www.w3.org/2000/svg" width="2294.368" height="2391.715" fill="none"><g><path d="M 665.247 1803.734 L 665.247 901.441 L 2075.076 901.441 L 2075.076 1803.734 Z" fill="transparent"></path><path d="M 665.247 1803.734 L 665.247 901.441 L 2075.076 901.441 L 2075.076 1803.734 Z" fill="rgb(3,21,26)"></path><path d="M 691.175 981.688 C 676.855 981.688 665.247 970.079 665.247 955.76 L 665.247 772.644 C 665.247 758.324 676.855 746.716 691.175 746.716 L 874.291 746.716 C 888.61 746.716 900.219 758.324 900.219 772.644 L 900.219 955.76 C 900.219 970.079 888.61 981.688 874.291 981.688 Z" fill="transparent" stroke-width="2.43" stroke="rgba(198,255,92,0.15)" stroke-miterlimit="10" stroke-dasharray=""></path><path d="M 926.147 981.688 C 911.827 981.688 900.219 970.079 900.219 955.76 L 900.219 772.644 C 900.219 758.324 911.827 746.716 926.147 746.716 L 1109.263 746.716 C 1123.583 746.716 1135.191 758.324 1135.191 772.644 L 1135.191 955.76 C 1135.191 970.079 1123.583 981.688 1109.263 981.688 Z" fill="transparent" stroke-width="2.43" stroke="rgba(198,255,92,0.15)" stroke-miterlimit="10" stroke-dasharray=""></path><path d="M 1161.119 981.688 C 1146.799 981.688 1135.191 970.079 1135.191 955.76 L 1135.191 772.644 C 1135.191 758.324 1146.799 746.716 1161.119 746.716 L 1344.235 746.716 C 1358.554 746.716 1370.163 758.324 1370.163 772.644 L 1370.163 955.76 C 1370.163 970.079 1358.554 981.688 1344.235 981.688 Z" fill="transparent" stroke-width="2.43" stroke="rgba(198,255,92,0.15)" stroke-miterlimit="10" stroke-dasharray=""></path><path d="M 1396.091 981.688 C 1381.771 981.688 1370.163 970.079 1370.163 955.76 L 1370.163 772.644 C 1370.163 758.324 1381.771 746.716 1396.091 746.716 L 1579.207 746.716 C 1593.526 746.716 1605.135 758.324 1605.135 772.644 L 1605.135 955.76 C 1605.135 970.079 1593.526 981.688 1579.207 981.688 Z" fill="transparent" stroke-width="2.43" stroke="rgba(198,255,92,0.15)" stroke-miterlimit="10" stroke-dasharray=""></path><path d="M 1631.063 981.688 C 1616.743 981.688 1605.135 970.079 1605.135 955.76 L 1605.135 772.644 C 1605.135 758.324 1616.743 746.716 1631.063 746.716 L 1814.178 746.716 C 1828.498 746.716 1840.106 758.324 1840.106 772.644 L 1840.106 955.76 C 1840.106 970.079 1828.498 981.688 1814.178 981.688 Z" fill="transparent" stroke-width="2.43" stroke="rgba(198,255,92,0.15)" stroke-miterlimit="10" stroke-dasharray=""></path><path d="M 1866.03 981.688 C 1851.711 981.688 1840.102 970.079 1840.102 955.76 L 1840.102 772.644 C 1840.102 758.324 1851.711 746.716 1866.03 746.716 L 2049.146 746.716 C 2063.466 746.716 2075.074 758.324 2075.074 772.644 L 2075.074 955.76 C 2075.074 970.079 2063.466 981.688 2049.146 981.688 Z" fill="transparent" stroke-width="2.43" stroke="rgba(198,255,92,0.15)" stroke-miterlimit="10" stroke-dasharray=""></path><path d="M 691.175 1216.659 C 676.855 1216.659 665.247 1205.051 665.247 1190.731 L 665.247 1007.615 C 665.247 993.295 676.855 981.687 691.175 981.687 L 874.291 981.687 C 888.61 981.687 900.219 993.295 900.219 1007.615 L 900.219 1190.731 C 900.219 1205.051 888.61 1216.659 874.291 1216.659 Z" fill="transparent" stroke-width="2.43" stroke="rgba(198,255,92,0.15)" stroke-miterlimit="10" stroke-dasharray=""></path><path d="M 926.147 1216.659 C 911.827 1216.659 900.219 1205.051 900.219 1190.731 L 900.219 1007.615 C 900.219 993.295 911.827 981.687 926.147 981.687 L 1109.263 981.687 C 1123.583 981.687 1135.191 993.295 1135.191 1007.615 L 1135.191 1190.731 C 1135.191 1205.051 1123.583 1216.659 1109.263 1216.659 Z" fill="transparent" stroke-width="2.43" stroke="rgba(198,255,92,0.15)" stroke-miterlimit="10" stroke-dasharray=""></path><path d="M 1161.119 1216.659 C 1146.799 1216.659 1135.191 1205.051 1135.191 1190.731 L 1135.191 1007.615 C 1135.191 993.295 1146.799 981.687 1161.119 981.687 L 1344.235 981.687 C 1358.554 981.687 1370.163 993.295 1370.163 1007.615 L 1370.163 1190.731 C 1370.163 1205.051 1358.554 1216.659 1344.235 1216.659 Z" fill="transparent" stroke-width="2.43" stroke="rgba(198,255,92,0.15)" stroke-miterlimit="10" stroke-dasharray=""></path><path d="M 1396.091 1216.659 C 1381.771 1216.659 1370.163 1205.051 1370.163 1190.731 L 1370.163 1007.615 C 1370.163 993.295 1381.771 981.687 1396.091 981.687 L 1579.207 981.687 C 1593.526 981.687 1605.135 993.295 1605.135 1007.615 L 1605.135 1190.731 C 1605.135 1205.051 1593.526 1216.659 1579.207 1216.659 Z" fill="transparent" stroke-width="2.43" stroke="rgba(198,255,92,0.15)" stroke-miterlimit="10" stroke-dasharray=""></path><path d="M 1631.063 1216.659 C 1616.743 1216.659 1605.135 1205.051 1605.135 1190.731 L 1605.135 1007.615 C 1605.135 993.295 1616.743 981.687 1631.063 981.687 L 1814.178 981.687 C 1828.498 981.687 1840.106 993.295 1840.106 1007.615 L 1840.106 1190.731 C 1840.106 1205.051 1828.498 1216.659 1814.178 1216.659 Z" fill="transparent" stroke-width="2.43" stroke="rgba(198,255,92,0.15)" stroke-miterlimit="10" stroke-dasharray=""></path><path d="M 1866.03 1216.659 C 1851.711 1216.659 1840.102 1205.051 1840.102 1190.731 L 1840.102 1007.615 C 1840.102 993.295 1851.711 981.687 1866.03 981.687 L 2049.146 981.687 C 2063.466 981.687 2075.074 993.295 2075.074 1007.615 L 2075.074 1190.731 C 2075.074 1205.051 2063.466 1216.659 2049.146 1216.659 Z" fill="transparent" stroke-width="2.43" stroke="rgba(198,255,92,0.15)" stroke-miterlimit="10" stroke-dasharray=""></path><path d="M 691.175 1451.631 C 676.855 1451.631 665.247 1440.023 665.247 1425.703 L 665.247 1242.587 C 665.247 1228.268 676.855 1216.659 691.175 1216.659 L 874.291 1216.659 C 888.61 1216.659 900.219 1228.268 900.219 1242.587 L 900.219 1425.703 C 900.219 1440.023 888.61 1451.631 874.291 1451.631 Z" fill="transparent" stroke-width="2.43" stroke="rgba(198,255,92,0.15)" stroke-miterlimit="10" stroke-dasharray=""></path><path d="M 926.147 1451.631 C 911.827 1451.631 900.219 1440.023 900.219 1425.703 L 900.219 1242.587 C 900.219 1228.268 911.827 1216.659 926.147 1216.659 L 1109.263 1216.659 C 1123.583 1216.659 1135.191 1228.268 1135.191 1242.587 L 1135.191 1425.703 C 1135.191 1440.023 1123.583 1451.631 1109.263 1451.631 Z" fill="transparent" stroke-width="2.43" stroke="rgba(198,255,92,0.15)" stroke-miterlimit="10" stroke-dasharray=""></path><path d="M 1161.119 1451.631 C 1146.799 1451.631 1135.191 1440.023 1135.191 1425.703 L 1135.191 1242.587 C 1135.191 1228.268 1146.799 1216.659 1161.119 1216.659 L 1344.235 1216.659 C 1358.554 1216.659 1370.163 1228.268 1370.163 1242.587 L 1370.163 1425.703 C 1370.163 1440.023 1358.554 1451.631 1344.235 1451.631 Z" fill="transparent" stroke-width="2.43" stroke="rgba(198,255,92,0.15)" stroke-miterlimit="10" stroke-dasharray=""></path><path d="M 1396.091 1451.631 C 1381.771 1451.631 1370.163 1440.023 1370.163 1425.703 L 1370.163 1242.587 C 1370.163 1228.268 1381.771 1216.659 1396.091 1216.659 L 1579.207 1216.659 C 1593.526 1216.659 1605.135 1228.268 1605.135 1242.587 L 1605.135 1425.703 C 1605.135 1440.023 1593.526 1451.631 1579.207 1451.631 Z" fill="transparent" stroke-width="2.43" stroke="rgba(198,255,92,0.15)" stroke-miterlimit="10" stroke-dasharray=""></path><path d="M 1631.063 1451.631 C 1616.743 1451.631 1605.135 1440.023 1605.135 1425.703 L 1605.135 1242.587 C 1605.135 1228.268 1616.743 1216.659 1631.063 1216.659 L 1814.178 1216.659 C 1828.498 1216.659 1840.106 1228.268 1840.106 1242.587 L 1840.106 1425.703 C 1840.106 1440.023 1828.498 1451.631 1814.178 1451.631 Z" fill="transparent" stroke-width="2.43" stroke="rgba(198,255,92,0.15)" stroke-miterlimit="10" stroke-dasharray=""></path><path d="M 1866.03 1451.631 C 1851.711 1451.631 1840.102 1440.023 1840.102 1425.703 L 1840.102 1242.587 C 1840.102 1228.268 1851.711 1216.659 1866.03 1216.659 L 2049.146 1216.659 C 2063.466 1216.659 2075.074 1228.268 2075.074 1242.587 L 2075.074 1425.703 C 2075.074 1440.023 2063.466 1451.631 2049.146 1451.631 Z" fill="transparent" stroke-width="2.43" stroke="rgba(198,255,92,0.15)" stroke-miterlimit="10" stroke-dasharray=""></path><path d="M 691.175 1686.603 C 676.855 1686.603 665.247 1674.995 665.247 1660.675 L 665.247 1477.559 C 665.247 1463.24 676.855 1451.631 691.175 1451.631 L 874.291 1451.631 C 888.61 1451.631 900.219 1463.24 900.219 1477.559 L 900.219 1660.675 C 900.219 1674.995 888.61 1686.603 874.291 1686.603 Z" fill="transparent" stroke-width="2.43" stroke="rgba(198,255,92,0.15)" stroke-miterlimit="10" stroke-dasharray=""></path><path d="M 926.147 1686.603 C 911.827 1686.603 900.219 1674.995 900.219 1660.675 L 900.219 1477.559 C 900.219 1463.24 911.827 1451.631 926.147 1451.631 L 1109.263 1451.631 C 1123.583 1451.631 1135.191 1463.24 1135.191 1477.559 L 1135.191 1660.675 C 1135.191 1674.995 1123.583 1686.603 1109.263 1686.603 Z" fill="transparent" stroke-width="2.43" stroke="rgba(198,255,92,0.15)" stroke-miterlimit="10" stroke-dasharray=""></path><path d="M 1161.119 1686.603 C 1146.799 1686.603 1135.191 1674.995 1135.191 1660.675 L 1135.191 1477.559 C 1135.191 1463.24 1146.799 1451.631 1161.119 1451.631 L 1344.235 1451.631 C 1358.554 1451.631 1370.163 1463.24 1370.163 1477.559 L 1370.163 1660.675 C 1370.163 1674.995 1358.554 1686.603 1344.235 1686.603 Z" fill="transparent" stroke-width="2.43" stroke="rgba(198,255,92,0.15)" stroke-miterlimit="10" stroke-dasharray=""></path><path d="M 1396.091 1686.603 C 1381.771 1686.603 1370.163 1674.995 1370.163 1660.675 L 1370.163 1477.559 C 1370.163 1463.24 1381.771 1451.631 1396.091 1451.631 L 1579.207 1451.631 C 1593.526 1451.631 1605.135 1463.24 1605.135 1477.559 L 1605.135 1660.675 C 1605.135 1674.995 1593.526 1686.603 1579.207 1686.603 Z" fill="transparent" stroke-width="2.43" stroke="rgba(198,255,92,0.15)" stroke-miterlimit="10" stroke-dasharray=""></path><path d="M 1631.063 1686.603 C 1616.743 1686.603 1605.135 1674.995 1605.135 1660.675 L 1605.135 1477.559 C 1605.135 1463.24 1616.743 1451.631 1631.063 1451.631 L 1814.178 1451.631 C 1828.498 1451.631 1840.106 1463.24 1840.106 1477.559 L 1840.106 1660.675 C 1840.106 1674.995 1828.498 1686.603 1814.178 1686.603 Z" fill="transparent" stroke-width="2.43" stroke="rgba(198,255,92,0.15)" stroke-miterlimit="10" stroke-dasharray=""></path><path d="M 1866.03 1686.603 C 1851.711 1686.603 1840.102 1674.995 1840.102 1660.675 L 1840.102 1477.559 C 1840.102 1463.24 1851.711 1451.631 1866.03 1451.631 L 2049.146 1451.631 C 2063.466 1451.631 2075.074 1463.24 2075.074 1477.559 L 2075.074 1660.675 C 2075.074 1674.995 2063.466 1686.603 2049.146 1686.603 Z" fill="transparent" stroke-width="2.43" stroke="rgba(198,255,92,0.15)" stroke-miterlimit="10" stroke-dasharray=""></path><path d="M 691.175 1921.575 C 676.855 1921.575 665.247 1909.967 665.247 1895.647 L 665.247 1712.531 C 665.247 1698.211 676.855 1686.603 691.175 1686.603 L 874.291 1686.603 C 888.61 1686.603 900.219 1698.211 900.219 1712.531 L 900.219 1895.647 C 900.219 1909.967 888.61 1921.575 874.291 1921.575 Z" fill="transparent" stroke-width="2.43" stroke="rgba(198,255,92,0.15)" stroke-miterlimit="10" stroke-dasharray=""></path><path d="M 926.147 1921.575 C 911.827 1921.575 900.219 1909.967 900.219 1895.647 L 900.219 1712.531 C 900.219 1698.211 911.827 1686.603 926.147 1686.603 L 1109.263 1686.603 C 1123.583 1686.603 1135.191 1698.211 1135.191 1712.531 L 1135.191 1895.647 C 1135.191 1909.967 1123.583 1921.575 1109.263 1921.575 Z" fill="transparent" stroke-width="2.43" stroke="rgba(198,255,92,0.15)" stroke-miterlimit="10" stroke-dasharray=""></path><path d="M 1161.119 1921.575 C 1146.799 1921.575 1135.191 1909.967 1135.191 1895.647 L 1135.191 1712.531 C 1135.191 1698.211 1146.799 1686.603 1161.119 1686.603 L 1344.235 1686.603 C 1358.554 1686.603 1370.163 1698.211 1370.163 1712.531 L 1370.163 1895.647 C 1370.163 1909.967 1358.554 1921.575 1344.235 1921.575 Z" fill="transparent" stroke-width="2.43" stroke="rgba(198,255,92,0.15)" stroke-miterlimit="10" stroke-dasharray=""></path><path d="M 1396.091 1921.575 C 1381.771 1921.575 1370.163 1909.967 1370.163 1895.647 L 1370.163 1712.531 C 1370.163 1698.211 1381.771 1686.603 1396.091 1686.603 L 1579.207 1686.603 C 1593.526 1686.603 1605.135 1698.211 1605.135 1712.531 L 1605.135 1895.647 C 1605.135 1909.967 1593.526 1921.575 1579.207 1921.575 Z" fill="transparent" stroke-width="2.43" stroke="rgba(198,255,92,0.15)" stroke-miterlimit="10" stroke-dasharray=""></path><path d="M 1631.063 1921.575 C 1616.743 1921.575 1605.135 1909.967 1605.135 1895.647 L 1605.135 1712.531 C 1605.135 1698.211 1616.743 1686.603 1631.063 1686.603 L 1814.178 1686.603 C 1828.498 1686.603 1840.106 1698.211 1840.106 1712.531 L 1840.106 1895.647 C 1840.106 1909.967 1828.498 1921.575 1814.178 1921.575 Z" fill="transparent" stroke-width="2.43" stroke="rgba(198,255,92,0.15)" stroke-miterlimit="10" stroke-dasharray=""></path><path d="M 1866.03 1921.575 C 1851.711 1921.575 1840.102 1909.967 1840.102 1895.647 L 1840.102 1712.531 C 1840.102 1698.211 1851.711 1686.603 1866.03 1686.603 L 2049.146 1686.603 C 2063.466 1686.603 2075.074 1698.211 2075.074 1712.531 L 2075.074 1895.647 C 2075.074 1909.967 2063.466 1921.575 2049.146 1921.575 Z" fill="transparent" stroke-width="2.43" stroke="rgba(198,255,92,0.15)" stroke-miterlimit="10" stroke-dasharray=""></path><path d="M 1373.922 766.162 L 1373.922 955.76 C 1373.922 970.079 1385.53 981.688 1399.85 981.688 L 1582.966 981.688 C 1597.285 981.688 1608.894 993.296 1608.894 1007.616 L 1608.894 1190.732 C 1608.894 1205.052 1620.502 1216.659 1634.823 1216.659 L 1817.934 1216.659 C 1832.26 1216.659 1843.871 1228.268 1843.871 1242.588 L 1843.871 1425.704 C 1843.871 1440.023 1855.472 1451.631 1869.798 1451.631 L 2052.913 1451.631 C 2067.23 1451.631 2078.841 1463.24 2078.841 1477.56 L 2078.841 1660.676 C 2078.841 1674.995 2090.442 1686.603 2104.768 1686.603 L 2294.368 1686.603 M 1138.951 766.162 L 1138.951 955.76 C 1138.951 970.079 1150.558 981.688 1164.878 981.688 L 1347.994 981.688 C 1362.314 981.688 1373.922 993.296 1373.922 1007.616 L 1373.922 1190.732 C 1373.922 1205.052 1385.53 1216.659 1399.85 1216.659 L 1582.966 1216.659 C 1597.285 1216.659 1608.894 1228.268 1608.894 1242.588 L 1608.894 1425.704 C 1608.894 1440.023 1597.285 1451.631 1582.966 1451.631 L 1399.85 1451.631 C 1385.53 1451.631 1373.922 1440.023 1373.922 1425.704 L 1373.922 1239.347 L 1373.695 1237.816 C 1371.955 1226.072 1361.987 1217.303 1350.117 1217.075 L 1328.548 1216.659 L 1164.878 1216.659 C 1150.558 1216.659 1138.951 1228.268 1138.951 1242.588 L 1138.951 1425.704 C 1138.951 1440.023 1150.558 1451.631 1164.878 1451.631 L 1349.615 1451.631 L 1355.77 1452.042 C 1365.985 1452.722 1373.922 1461.207 1373.922 1471.444 L 1373.922 1491.334 M 1373.922 1471.077 L 1373.922 1660.676 C 1373.922 1674.995 1385.53 1686.603 1399.85 1686.603 L 1582.966 1686.603 C 1597.285 1686.603 1608.894 1698.212 1608.894 1712.531 L 1608.894 1895.651 C 1608.894 1909.968 1620.502 1921.579 1634.823 1921.579 L 1817.934 1921.579 C 1832.26 1921.579 1843.871 1933.18 1843.871 1947.506 L 1843.871 2130.621 C 1843.871 2144.938 1855.472 2156.549 1869.798 2156.549 L 2052.913 2156.549 C 2067.23 2156.549 2078.841 2168.159 2078.841 2182.476 L 2078.841 2365.591 C 2078.841 2379.908 2090.442 2391.519 2104.768 2391.519 L 2294.368 2391.519" fill="transparent" stroke-width="2.43" stroke="rgba(NaN,NaN,NaN,0.8)" stroke-miterlimit="10" stroke-dasharray=""></path><g><defs><linearGradient id="idid_RzmEe7XbTg468754902" x1="0" x2="1" y1="0.4975124378109453" y2="0.5024875621890547"><stop offset="0" stop-color="rgb(3,21,26)" stop-opacity="1"></stop><stop offset="1" stop-color="rgba(3,21,26,0)" stop-opacity="0"></stop></linearGradient></defs><path d="M 1370.162 2218.322 L 665.247 2218.322 L 665.247 900.857 L 1370.162 900.857 Z" fill="url(#idid_RzmEe7XbTg468754902)"></path></g><g><defs><linearGradient id="idid_Hxn38H6LJg468754828" x1="0.49748743718592964" x2="0.5025125628140703" y1="1" y2="0"><stop offset="0" stop-color="rgb(3,21,26)" stop-opacity="1"></stop><stop offset="1" stop-color="rgba(3,21,26,0)" stop-opacity="0"></stop></linearGradient></defs><path d="M 1982.708 1686.8 L 1982.708 2391.715 L 665.243 2391.715 L 665.243 1686.8 Z" fill="url(#idid_Hxn38H6LJg468754828)"></path></g><g><defs><radialGradient id="idid_R0xmcd9SUg468754828" cy="-0.10629048531003943" cx="0.5252867912711747" r="0.49999999999999994" gradientTransform="translate(0.5252867912711747, -0.10629048531003943) scale(1 1) translate(-0.5252867912711747, --0.10629048531003943)"><stop offset="0" stop-color="rgb(3,21,26)" stop-opacity="1"></stop><stop offset="1" stop-color="rgba(3,21,26,0)" stop-opacity="0"></stop></radialGradient></defs><path d="M 0 747.049 C 0 334.465 392.507 0 876.689 0 C 1360.87 0 1753.377 334.465 1753.377 747.049 C 1753.377 1159.632 1360.87 1494.097 876.689 1494.097 C 392.507 1494.097 0 1159.632 0 747.049 Z" fill="url(#idid_R0xmcd9SUg468754828)"></path></g></g></svg>