<svg xmlns="http://www.w3.org/2000/svg" xmlns:xlink="http://www.w3.org/1999/xlink" width="306" zoomAndPan="magnify" viewBox="0 0 229.5 313.500004" height="418" preserveAspectRatio="xMidYMid meet" version="1.2"><defs><clipPath id="4a5060b75d"><path d="M 0 42.316406 L 228.253906 42.316406 L 228.253906 270.566406 L 0 270.566406 Z M 0 42.316406 "/></clipPath><clipPath id="b3e52ddea2"><path d="M 44.582031 42.316406 L 183.679688 42.316406 C 208.199219 42.316406 228.261719 62.375 228.261719 86.898438 L 228.261719 225.996094 C 228.261719 250.515625 208.199219 270.578125 183.679688 270.578125 L 44.582031 270.578125 C 20.0625 270.578125 0 250.515625 0 225.996094 L 0 86.898438 C 0 62.375 20.0625 42.316406 44.582031 42.316406 "/></clipPath><clipPath id="be3bf201c0"><path d="M 114.132812 -71.816406 L -114.132812 156.445312 L 114.132812 384.707031 L 342.394531 156.445312 Z M 114.132812 -71.816406 "/></clipPath><linearGradient x1="-0.194581" gradientTransform="matrix(164.343963,164.343963,-164.343963,164.343963,32.017705,74.253613)" y1="0" x2="1.194291" gradientUnits="userSpaceOnUse" y2="0" id="a30d4180b6"><stop style="stop-color:#f8c34a;stop-opacity:1;" offset="0"/><stop style="stop-color:#f8c34a;stop-opacity:1;" offset="0.125"/><stop style="stop-color:#f8c34a;stop-opacity:1;" offset="0.140625"/><stop style="stop-color:#f8c34a;stop-opacity:1;" offset="0.144531"/><stop style="stop-color:#f8c24a;stop-opacity:1;" offset="0.148438"/><stop style="stop-color:#f8c249;stop-opacity:1;" offset="0.152344"/><stop style="stop-color:#f8c149;stop-opacity:1;" offset="0.15625"/><stop style="stop-color:#f8c149;stop-opacity:1;" offset="0.160156"/><stop style="stop-color:#f8c049;stop-opacity:1;" offset="0.164062"/><stop style="stop-color:#f8c048;stop-opacity:1;" offset="0.167969"/><stop style="stop-color:#f7bf48;stop-opacity:1;" offset="0.171875"/><stop style="stop-color:#f7be48;stop-opacity:1;" offset="0.175781"/><stop style="stop-color:#f7bd48;stop-opacity:1;" offset="0.179688"/><stop style="stop-color:#f7bd48;stop-opacity:1;" offset="0.1875"/><stop style="stop-color:#f7bc47;stop-opacity:1;" offset="0.191406"/><stop style="stop-color:#f7bb47;stop-opacity:1;" offset="0.195312"/><stop style="stop-color:#f7ba47;stop-opacity:1;" offset="0.203125"/><stop style="stop-color:#f7b947;stop-opacity:1;" offset="0.210938"/><stop style="stop-color:#f7b946;stop-opacity:1;" offset="0.21875"/><stop style="stop-color:#f7b846;stop-opacity:1;" offset="0.222656"/><stop style="stop-color:#f7b745;stop-opacity:1;" offset="0.226562"/><stop style="stop-color:#f7b745;stop-opacity:1;" offset="0.230469"/><stop style="stop-color:#f6b645;stop-opacity:1;" offset="0.234375"/><stop style="stop-color:#f6b645;stop-opacity:1;" offset="0.238281"/><stop style="stop-color:#f6b545;stop-opacity:1;" offset="0.242188"/><stop style="stop-color:#f6b545;stop-opacity:1;" offset="0.246094"/><stop style="stop-color:#f6b444;stop-opacity:1;" offset="0.25"/><stop style="stop-color:#f6b344;stop-opacity:1;" offset="0.253906"/><stop style="stop-color:#f6b244;stop-opacity:1;" offset="0.257812"/><stop style="stop-color:#f6b244;stop-opacity:1;" offset="0.265625"/><stop style="stop-color:#f6b143;stop-opacity:1;" offset="0.269531"/><stop style="stop-color:#f6b043;stop-opacity:1;" offset="0.273438"/><stop style="stop-color:#f6af43;stop-opacity:1;" offset="0.28125"/><stop style="stop-color:#f6ae43;stop-opacity:1;" offset="0.285156"/><stop style="stop-color:#f6ae42;stop-opacity:1;" offset="0.289063"/><stop style="stop-color:#f6ae42;stop-opacity:1;" offset="0.292969"/><stop style="stop-color:#f5ad42;stop-opacity:1;" offset="0.296875"/><stop style="stop-color:#f5ad42;stop-opacity:1;" offset="0.304688"/><stop style="stop-color:#f5ac41;stop-opacity:1;" offset="0.308594"/><stop style="stop-color:#f5ab41;stop-opacity:1;" offset="0.3125"/><stop style="stop-color:#f5ab41;stop-opacity:1;" offset="0.316406"/><stop style="stop-color:#f5aa40;stop-opacity:1;" offset="0.320312"/><stop style="stop-color:#f5aa40;stop-opacity:1;" offset="0.324219"/><stop style="stop-color:#f5a940;stop-opacity:1;" offset="0.328125"/><stop style="stop-color:#f5a940;stop-opacity:1;" offset="0.332031"/><stop style="stop-color:#f5a840;stop-opacity:1;" offset="0.335938"/><stop style="stop-color:#f5a73f;stop-opacity:1;" offset="0.339844"/><stop style="stop-color:#f5a63f;stop-opacity:1;" offset="0.34375"/><stop style="stop-color:#f5a63f;stop-opacity:1;" offset="0.351563"/><stop style="stop-color:#f4a53e;stop-opacity:1;" offset="0.355469"/><stop style="stop-color:#f4a43e;stop-opacity:1;" offset="0.359375"/><stop style="stop-color:#f4a33e;stop-opacity:1;" offset="0.367188"/><stop style="stop-color:#f4a33e;stop-opacity:1;" offset="0.375"/><stop style="stop-color:#f4a13d;stop-opacity:1;" offset="0.378906"/><stop style="stop-color:#f4a13d;stop-opacity:1;" offset="0.382813"/><stop style="stop-color:#f4a03d;stop-opacity:1;" offset="0.386719"/><stop style="stop-color:#f4a03d;stop-opacity:1;" offset="0.390625"/><stop style="stop-color:#f49f3c;stop-opacity:1;" offset="0.394531"/><stop style="stop-color:#f49f3c;stop-opacity:1;" offset="0.398438"/><stop style="stop-color:#f49f3c;stop-opacity:1;" offset="0.402344"/><stop style="stop-color:#f49e3c;stop-opacity:1;" offset="0.40625"/><stop style="stop-color:#f49e3c;stop-opacity:1;" offset="0.410156"/><stop style="stop-color:#f39d3c;stop-opacity:1;" offset="0.414063"/><stop style="stop-color:#f39c3b;stop-opacity:1;" offset="0.417969"/><stop style="stop-color:#f39b3b;stop-opacity:1;" offset="0.421875"/><stop style="stop-color:#f39b3b;stop-opacity:1;" offset="0.429688"/><stop style="stop-color:#f39a3b;stop-opacity:1;" offset="0.4375"/><stop style="stop-color:#f3993a;stop-opacity:1;" offset="0.441406"/><stop style="stop-color:#f3983a;stop-opacity:1;" offset="0.445312"/><stop style="stop-color:#f3983a;stop-opacity:1;" offset="0.453125"/><stop style="stop-color:#f39739;stop-opacity:1;" offset="0.460938"/><stop style="stop-color:#f39539;stop-opacity:1;" offset="0.464844"/><stop style="stop-color:#f39539;stop-opacity:1;" offset="0.46875"/><stop style="stop-color:#f39439;stop-opacity:1;" offset="0.472656"/><stop style="stop-color:#f29438;stop-opacity:1;" offset="0.476563"/><stop style="stop-color:#f29338;stop-opacity:1;" offset="0.480469"/><stop style="stop-color:#f29338;stop-opacity:1;" offset="0.484375"/><stop style="stop-color:#f29238;stop-opacity:1;" offset="0.492188"/><stop style="stop-color:#f29137;stop-opacity:1;" offset="0.496094"/><stop style="stop-color:#f29037;stop-opacity:1;" offset="0.5"/><stop style="stop-color:#f29037;stop-opacity:1;" offset="0.507812"/><stop style="stop-color:#f28f37;stop-opacity:1;" offset="0.511719"/><stop style="stop-color:#f28e36;stop-opacity:1;" offset="0.515625"/><stop style="stop-color:#f28e36;stop-opacity:1;" offset="0.519531"/><stop style="stop-color:#f28d36;stop-opacity:1;" offset="0.523438"/><stop style="stop-color:#f28d36;stop-opacity:1;" offset="0.53125"/><stop style="stop-color:#f18c35;stop-opacity:1;" offset="0.539062"/><stop style="stop-color:#f18b35;stop-opacity:1;" offset="0.542969"/><stop style="stop-color:#f18a35;stop-opacity:1;" offset="0.546875"/><stop style="stop-color:#f18935;stop-opacity:1;" offset="0.550781"/><stop style="stop-color:#f18934;stop-opacity:1;" offset="0.554688"/><stop style="stop-color:#f18834;stop-opacity:1;" offset="0.558594"/><stop style="stop-color:#f18834;stop-opacity:1;" offset="0.5625"/><stop style="stop-color:#f18734;stop-opacity:1;" offset="0.566406"/><stop style="stop-color:#f18733;stop-opacity:1;" offset="0.570313"/><stop style="stop-color:#f18633;stop-opacity:1;" offset="0.574219"/><stop style="stop-color:#f18633;stop-opacity:1;" offset="0.578125"/><stop style="stop-color:#f18533;stop-opacity:1;" offset="0.582031"/><stop style="stop-color:#f18432;stop-opacity:1;" offset="0.585938"/><stop style="stop-color:#f08432;stop-opacity:1;" offset="0.589844"/><stop style="stop-color:#f08332;stop-opacity:1;" offset="0.59375"/><stop style="stop-color:#f08332;stop-opacity:1;" offset="0.601562"/><stop style="stop-color:#f08231;stop-opacity:1;" offset="0.605469"/><stop style="stop-color:#f08131;stop-opacity:1;" offset="0.609375"/><stop style="stop-color:#f08131;stop-opacity:1;" offset="0.617188"/><stop style="stop-color:#f08031;stop-opacity:1;" offset="0.625"/><stop style="stop-color:#f07f30;stop-opacity:1;" offset="0.628906"/><stop style="stop-color:#f07e30;stop-opacity:1;" offset="0.632812"/><stop style="stop-color:#f07d30;stop-opacity:1;" offset="0.636719"/><stop style="stop-color:#f07d30;stop-opacity:1;" offset="0.640625"/><stop style="stop-color:#f07c2f;stop-opacity:1;" offset="0.644531"/><stop style="stop-color:#f07c2f;stop-opacity:1;" offset="0.648438"/><stop style="stop-color:#ef7b2f;stop-opacity:1;" offset="0.652344"/><stop style="stop-color:#ef7b2f;stop-opacity:1;" offset="0.65625"/><stop style="stop-color:#ef7a2e;stop-opacity:1;" offset="0.660156"/><stop style="stop-color:#ef792e;stop-opacity:1;" offset="0.664062"/><stop style="stop-color:#ef792e;stop-opacity:1;" offset="0.671875"/><stop style="stop-color:#ef782e;stop-opacity:1;" offset="0.679687"/><stop style="stop-color:#ef772d;stop-opacity:1;" offset="0.683594"/><stop style="stop-color:#ef762d;stop-opacity:1;" offset="0.6875"/><stop style="stop-color:#ef762d;stop-opacity:1;" offset="0.691406"/><stop style="stop-color:#ef752d;stop-opacity:1;" offset="0.695312"/><stop style="stop-color:#ef752c;stop-opacity:1;" offset="0.703125"/><stop style="stop-color:#ee742c;stop-opacity:1;" offset="0.707031"/><stop style="stop-color:#ee732c;stop-opacity:1;" offset="0.710938"/><stop style="stop-color:#ee722c;stop-opacity:1;" offset="0.714844"/><stop style="stop-color:#ee722b;stop-opacity:1;" offset="0.71875"/><stop style="stop-color:#ee712b;stop-opacity:1;" offset="0.722656"/><stop style="stop-color:#ee712b;stop-opacity:1;" offset="0.726562"/><stop style="stop-color:#ee702b;stop-opacity:1;" offset="0.730469"/><stop style="stop-color:#ee702b;stop-opacity:1;" offset="0.734375"/><stop style="stop-color:#ee6f2b;stop-opacity:1;" offset="0.738281"/><stop style="stop-color:#ee6f2a;stop-opacity:1;" offset="0.742188"/><stop style="stop-color:#ee6e2a;stop-opacity:1;" offset="0.746094"/><stop style="stop-color:#ee6d2a;stop-opacity:1;" offset="0.75"/><stop style="stop-color:#ee6d2a;stop-opacity:1;" offset="0.757812"/><stop style="stop-color:#ee6c29;stop-opacity:1;" offset="0.765625"/><stop style="stop-color:#ed6b29;stop-opacity:1;" offset="0.769531"/><stop style="stop-color:#ed6a29;stop-opacity:1;" offset="0.773438"/><stop style="stop-color:#ed6a29;stop-opacity:1;" offset="0.777344"/><stop style="stop-color:#ed6928;stop-opacity:1;" offset="0.78125"/><stop style="stop-color:#ed6928;stop-opacity:1;" offset="0.785156"/><stop style="stop-color:#ed6828;stop-opacity:1;" offset="0.789062"/><stop style="stop-color:#ed6828;stop-opacity:1;" offset="0.792969"/><stop style="stop-color:#ed6727;stop-opacity:1;" offset="0.796875"/><stop style="stop-color:#ed6727;stop-opacity:1;" offset="0.800781"/><stop style="stop-color:#ed6627;stop-opacity:1;" offset="0.804688"/><stop style="stop-color:#ed6527;stop-opacity:1;" offset="0.808594"/><stop style="stop-color:#ed6527;stop-opacity:1;" offset="0.8125"/><stop style="stop-color:#ed6427;stop-opacity:1;" offset="0.816406"/><stop style="stop-color:#ed6426;stop-opacity:1;" offset="0.820313"/><stop style="stop-color:#ed6326;stop-opacity:1;" offset="0.824219"/><stop style="stop-color:#ed6226;stop-opacity:1;" offset="0.828125"/><stop style="stop-color:#ec6225;stop-opacity:1;" offset="0.832031"/><stop style="stop-color:#ec6125;stop-opacity:1;" offset="0.835938"/><stop style="stop-color:#ec6125;stop-opacity:1;" offset="0.84375"/><stop style="stop-color:#ec6025;stop-opacity:1;" offset="0.851562"/><stop style="stop-color:#ec5f24;stop-opacity:1;" offset="0.855469"/><stop style="stop-color:#ec5e24;stop-opacity:1;" offset="0.859375"/><stop style="stop-color:#ec5e24;stop-opacity:1;" offset="0.875"/><stop style="stop-color:#ec5e24;stop-opacity:1;" offset="1"/></linearGradient><clipPath id="c9b9738752"><path d="M 137.117188 128.003906 L 174.535156 128.003906 L 174.535156 165.421875 L 137.117188 165.421875 Z M 137.117188 128.003906 "/></clipPath></defs><g id="8ea73b8ca9"><g clip-rule="nonzero" clip-path="url(#4a5060b75d)"><g clip-rule="nonzero" clip-path="url(#b3e52ddea2)"><g clip-rule="nonzero" clip-path="url(#be3bf201c0)"><path style=" stroke:none;fill-rule:nonzero;fill:url(#a30d4180b6);" d="M 114.125 -71.8125 L -114.125 156.441406 L 114.125 384.695312 L 342.378906 156.441406 Z M 114.125 -71.8125 "/></g></g></g><path style=" stroke:none;fill-rule:nonzero;fill:#fffffd;fill-opacity:1;" d="M 90.773438 131.777344 L 32.101562 115.859375 L 32.101562 196.300781 L 90.773438 212.214844 Z M 30.839844 111.824219 L 93.023438 128.691406 C 93.828125 128.910156 94.351562 129.644531 94.339844 130.441406 L 94.339844 214.546875 C 94.339844 215.753906 93.167969 216.601562 92.03125 216.253906 L 29.851562 199.386719 C 29.046875 199.167969 28.519531 198.433594 28.535156 197.636719 L 28.535156 113.53125 C 28.535156 112.320312 29.707031 111.476562 30.839844 111.824219 "/><path style=" stroke:none;fill-rule:nonzero;fill:#fffffd;fill-opacity:1;" d="M 116.324219 105.96875 L 61.085938 120.226562 C 60.132812 120.46875 59.5625 121.4375 59.800781 122.386719 C 60.046875 123.335938 61.011719 123.910156 61.964844 123.667969 L 123.628906 107.753906 L 147.664062 113.617188 L 92.089844 128.691406 C 91.289062 128.910156 90.761719 129.644531 90.773438 130.441406 L 90.773438 214.546875 C 90.773438 215.53125 91.570312 216.332031 92.558594 216.332031 C 92.742188 216.332031 92.917969 216.304688 93.082031 216.253906 L 155.265625 199.386719 C 156.070312 199.167969 156.59375 198.433594 156.582031 197.636719 L 156.582031 173.519531 C 156.472656 173.523438 156.363281 173.523438 156.257812 173.523438 C 155.175781 173.523438 154.09375 173.457031 153.015625 173.324219 L 153.015625 196.300781 L 94.339844 212.214844 L 94.339844 131.777344 L 153.015625 115.859375 L 153.015625 120.503906 C 154.09375 120.371094 155.175781 120.308594 156.257812 120.308594 C 156.363281 120.308594 156.472656 120.308594 156.582031 120.308594 L 156.582031 113.53125 C 156.582031 112.640625 155.929688 111.902344 155.078125 111.769531 L 124.039062 104.195312 L 93.121094 96.652344 C 92.804688 96.542969 92.460938 96.53125 92.136719 96.617188 L 29.898438 111.800781 C 28.945312 112.03125 28.359375 112.992188 28.585938 113.945312 C 28.820312 114.902344 29.78125 115.488281 30.734375 115.257812 L 92.558594 100.171875 L 116.324219 105.96875 "/><path style=" stroke:none;fill-rule:nonzero;fill:#fffffd;fill-opacity:1;" d="M 146.097656 184.019531 L 132.378906 188.199219 L 132.378906 194.859375 L 146.097656 190.679688 Z M 130.234375 185.136719 L 147.367188 179.921875 C 148.503906 179.542969 149.6875 180.480469 149.664062 181.652344 L 149.664062 191.992188 C 149.664062 192.851562 149.054688 193.574219 148.242188 193.742188 L 131.113281 198.957031 C 129.960938 199.34375 128.789062 198.410156 128.808594 197.226562 L 128.808594 186.886719 C 128.808594 186.023438 129.421875 185.304688 130.234375 185.136719 "/><path style=" stroke:none;fill-rule:nonzero;fill:#fffffd;fill-opacity:1;" d="M 54.003906 198.957031 L 36.871094 193.742188 C 36.058594 193.574219 35.449219 192.851562 35.449219 191.992188 L 35.449219 181.652344 C 35.425781 180.398438 36.550781 179.625 37.75 179.921875 L 54.882812 185.136719 C 55.695312 185.304688 56.304688 186.023438 56.304688 186.886719 L 56.304688 197.226562 C 56.328125 198.4375 55.179688 199.304688 54.003906 198.957031 Z M 39.015625 190.679688 L 52.738281 194.859375 L 52.738281 188.199219 L 39.015625 184.019531 L 39.015625 190.679688 "/><path style=" stroke:none;fill-rule:nonzero;fill:#fffffd;fill-opacity:1;" d="M 156.257812 123.875 C 150.359375 123.875 144.464844 126.121094 139.964844 130.621094 C 135.464844 135.121094 133.214844 141.019531 133.214844 146.914062 C 133.214844 152.8125 135.464844 158.707031 139.964844 163.207031 C 144.464844 167.707031 150.359375 169.957031 156.257812 169.957031 C 162.152344 169.957031 168.050781 167.707031 172.550781 163.207031 C 177.050781 158.707031 179.296875 152.8125 179.296875 146.914062 C 179.296875 141.019531 177.050781 135.121094 172.550781 130.621094 C 168.050781 126.121094 162.152344 123.875 156.257812 123.875 Z M 137.441406 128.101562 C 142.636719 122.90625 149.449219 120.308594 156.257812 120.308594 C 163.066406 120.308594 169.875 122.90625 175.070312 128.101562 C 180.265625 133.296875 182.863281 140.105469 182.863281 146.914062 C 182.863281 153.167969 180.671875 159.421875 176.289062 164.425781 L 199.207031 187.34375 C 199.902344 188.039062 199.902344 189.167969 199.207031 189.867188 C 198.511719 190.5625 197.382812 190.5625 196.683594 189.867188 L 173.769531 166.949219 C 168.765625 171.332031 162.511719 173.523438 156.257812 173.523438 C 149.449219 173.523438 142.636719 170.925781 137.441406 165.730469 C 132.246094 160.535156 129.648438 153.722656 129.648438 146.914062 C 129.648438 140.105469 132.246094 133.296875 137.441406 128.101562 "/><g clip-rule="nonzero" clip-path="url(#c9b9738752)"><path style="fill-rule:nonzero;fill:#00d300;fill-opacity:1;stroke-width:1;stroke-linecap:butt;stroke-linejoin:miter;stroke:#3fb24f;stroke-opacity:1;stroke-miterlimit:10;" d="M 191.213188 381.955641 C 85.903923 381.955641 0.514796 296.566513 0.514796 191.217328 C 0.514796 85.908064 85.903923 0.518936 191.213188 0.518936 C 296.562373 0.518936 381.9515 85.908064 381.9515 191.217328 C 381.9515 296.566513 296.562373 381.955641 191.213188 381.955641 Z M 191.213188 381.955641 " transform="matrix(0.0978517,0,0,0.0978517,137.117595,128.003909)"/></g><path style=" stroke:none;fill-rule:nonzero;fill:#ffffff;fill-opacity:1;" d="M 150.847656 156.023438 L 144.9375 148.347656 C 144.414062 147.667969 144.542969 146.691406 145.222656 146.167969 L 145.863281 145.675781 C 146.542969 145.152344 147.515625 145.28125 148.039062 145.960938 L 150.960938 149.75 C 151.566406 150.539062 152.75 150.5625 153.386719 149.792969 L 163.667969 137.367188 C 164.214844 136.703125 165.195312 136.613281 165.855469 137.160156 L 166.480469 137.671875 C 167.140625 138.21875 167.230469 139.199219 166.683594 139.859375 L 153.277344 156.066406 C 152.640625 156.832031 151.457031 156.8125 150.847656 156.023438 Z M 150.847656 156.023438 "/></g></svg>